<svg xmlns="http://www.w3.org/2000/svg" width="103.15" height="68.677" viewBox="0 0 103.15 68.677"><g transform="translate(-133.476 -131.213)"><path d="M275.723,458.012l-1.3,3.427h-.257l-1.3-3.427h.3l1.124,3.021h.009l1.134-3.021Z" transform="translate(-112.001 -262.597)" fill="#040505"/><path d="M289.227,459.035a.215.215,0,1,1,.217.213.209.209,0,0,1-.217-.213m.082.71h.255v2.346h-.255Z" transform="translate(-125.153 -263.248)" fill="#040505"/><path d="M295.743,463.76v2.234a1,1,0,0,1-1.115,1.09,1.782,1.782,0,0,1-.956-.266l.067-.236a1.6,1.6,0,0,0,.884.261.771.771,0,0,0,.869-.81v-.4h-.01a1.028,1.028,0,0,1-.873.43,1.164,1.164,0,0,1-.009-2.327,1.077,1.077,0,0,1,.883.445h.01v-.42Zm-.247,1.124a.861.861,0,0,0-.873-.908.923.923,0,1,0,.873.908" transform="translate(-128.566 -267.195)" fill="#040505"/><path d="M308.439,459.035a.214.214,0,1,1,.218.213.209.209,0,0,1-.218-.213m.081.71h.257v2.346h-.257Z" transform="translate(-140.59 -263.248)" fill="#040505"/><rect width="0.255" height="3.554" transform="translate(168.661 195.289)" fill="#040505"/><path d="M319.331,463.412v2.346h-.241v-.449h-.01a1.018,1.018,0,0,1-.889.473,1.127,1.127,0,0,1-1.149-1.179,1.149,1.149,0,0,1,1.14-1.217,1.032,1.032,0,0,1,.888.488h.01v-.463Zm-.241,1.2a.9.9,0,1,0-1.786,0,.894.894,0,1,0,1.786,0" transform="translate(-147.503 -266.916)" fill="#040505"/><path d="M333.913,457.368v3.554h-.247v-.445h-.009a1.007,1.007,0,0,1-.889.469,1.126,1.126,0,0,1-1.148-1.179,1.148,1.148,0,0,1,1.139-1.217,1.043,1.043,0,0,1,.893.488h.01v-1.671Zm-.247,2.4a.9.9,0,1,0-1.785,0,.894.894,0,1,0,1.785,0" transform="translate(-159.217 -262.079)" fill="#040505"/><path d="M349.3,463.412v2.346h-.241v-.449h-.009a1.018,1.018,0,0,1-.888.473,1.127,1.127,0,0,1-1.149-1.179,1.149,1.149,0,0,1,1.14-1.217,1.033,1.033,0,0,1,.887.488h.011v-.463Zm-.241,1.2a.9.9,0,1,0-1.787,0,.894.894,0,1,0,1.787,0" transform="translate(-171.583 -266.916)" fill="#040505"/><path d="M371.689,458.012v3.427h-.27v-2.888h0l-1.28,2.177h-.2l-1.284-2.177h-.006v2.888h-.271v-3.427h.277l1.378,2.364h.01l1.376-2.364Z" transform="translate(-188.753 -262.597)" fill="#040505"/><path d="M388.47,459.035a.215.215,0,1,1,.217.213.209.209,0,0,1-.217-.213m.083.71h.256v2.346h-.256Z" transform="translate(-204.898 -263.248)" fill="#040505"/><path d="M394.43,464.367v1.391h-.256V464.4c0-.613-.265-.772-.594-.772a.862.862,0,0,0-.86.964v1.165h-.255v-2.346h.255v.458h.006a1.058,1.058,0,0,1,.912-.483c.467,0,.792.281.792.98" transform="translate(-208.109 -266.916)" fill="#040505"/><path d="M406.751,464.665H404.86a.874.874,0,0,0,.878.893.916.916,0,0,0,.737-.354l.184.156a1.113,1.113,0,0,1-.917.439,1.2,1.2,0,0,1-.042-2.391,1.05,1.05,0,0,1,1.056,1.131c0,.058-.005.121-.005.125m-1.877-.237H406.5a.789.789,0,0,0-.782-.777.85.85,0,0,0-.844.777" transform="translate(-217.859 -266.933)" fill="#040505"/><path d="M421.128,457.368v3.554h-.246v-.445h-.009a1,1,0,0,1-.888.469,1.126,1.126,0,0,1-1.149-1.179,1.149,1.149,0,0,1,1.139-1.217,1.043,1.043,0,0,1,.893.488h.009v-1.671Zm-.246,2.4a.9.9,0,1,0-1.786,0,.894.894,0,1,0,1.786,0" transform="translate(-229.299 -262.079)" fill="#040505"/><path d="M436.012,463.514v2.346h-.256v-.435h-.009a.987.987,0,0,1-.81.459c-.536,0-.859-.329-.859-.965v-1.405h.254v1.328c0,.594.235.8.637.8a.874.874,0,0,0,.787-.971v-1.158Z" transform="translate(-241.546 -267.018)" fill="#040505"/><path d="M446.156,464.607a1.122,1.122,0,0,1,1.154-1.2,1.212,1.212,0,0,1,.911.392l-.183.165a.934.934,0,0,0-.719-.315.955.955,0,0,0,0,1.907.989.989,0,0,0,.735-.309l.178.169a1.281,1.281,0,0,1-.932.381,1.115,1.115,0,0,1-1.143-1.193" transform="translate(-251.252 -266.933)" fill="#040505"/><path d="M461.672,463.412v2.346h-.242v-.449h-.009a1.022,1.022,0,0,1-.889.473,1.126,1.126,0,0,1-1.148-1.179,1.149,1.149,0,0,1,1.14-1.217,1.034,1.034,0,0,1,.887.488h.011v-.463Zm-.242,1.2a.9.9,0,1,0-1.786,0,.894.894,0,1,0,1.786,0" transform="translate(-261.88 -266.916)" fill="#040505"/><path d="M473.609,464.607a1.123,1.123,0,0,1,1.153-1.2,1.215,1.215,0,0,1,.912.392l-.184.165a.927.927,0,0,0-.717-.315.955.955,0,0,0,0,1.907.982.982,0,0,0,.733-.309l.178.169a1.28,1.28,0,0,1-.932.381,1.115,1.115,0,0,1-1.143-1.193" transform="translate(-273.311 -266.933)" fill="#040505"/><path d="M487.03,459.035a.215.215,0,1,1,.217.213.208.208,0,0,1-.217-.213m.082.71h.255v2.346h-.255Z" transform="translate(-284.095 -263.248)" fill="#040505"/><path d="M491.626,460.529a1.189,1.189,0,1,1,1.192,1.193,1.159,1.159,0,0,1-1.192-1.193m2.118,0a.929.929,0,1,0-.931.951.918.918,0,0,0,.931-.951m-.506-2.2h.318l-.6.669h-.3Z" transform="translate(-287.789 -262.855)" fill="#040505"/><path d="M508.054,464.367v1.391H507.8V464.4c0-.613-.265-.772-.594-.772a.862.862,0,0,0-.858.964v1.165h-.256v-2.346h.256v.458h0a1.063,1.063,0,0,1,.913-.483c.469,0,.793.281.793.98" transform="translate(-299.41 -266.916)" fill="#040505"/><path d="M139.49,143.242a6.014,6.014,0,1,0-6.014-6.018,6.026,6.026,0,0,0,6.014,6.018" transform="translate(0)" fill="#ed7a00" fill-rule="evenodd"/><path d="M146.9,203.11H137v34.3h20.914v-5.377c-7,.6-11.518-3.709-11.282-13.25l-.033-13.551a9.654,9.654,0,0,1,.3-2.118" transform="translate(-2.83 -57.772)" fill="#2b7a27" fill-rule="evenodd"/><path d="M273.391,203.11v7.081h-9.407V216.6h8.741v6.529h-8.741v7.635h10.4v6.64h-27v-5.377c4.864-2.063,7.426-5.076,7.492-13.108l.033-13.484a7.472,7.472,0,0,0-.32-2.327h18.8" transform="translate(-91.532 -57.772)" fill="#ed7a00" fill-rule="evenodd"/><path d="M230.063,273.017A2.063,2.063,0,1,1,228,275.081a2.069,2.069,0,0,1,2.067-2.064" transform="translate(-75.951 -113.945)" fill="#171716" fill-rule="evenodd"/><path d="M226.681,243.326c1.391-.03,2.523,3.283,2.44,7.606-.032,4.32-1.262,7.439-2.619,7.439-1.4.019-2.463-3.366-2.424-7.466h-.143c.033-2.87.79-7.246,2.747-7.58m0-.142c1.647-.007,2.715,3.475,2.715,7.774s-1.313,7.815-2.891,7.815c-1.624.039-2.908-3.517-2.87-7.857l.171,0c.218-4.124,1.055-7.473,2.876-7.735" transform="translate(-72.443 -89.973)" fill="#2b7a27" fill-rule="evenodd"/><path d="M228.274,251.763a.415.415,0,0,1,.412.413.413.413,0,1,1-.412-.413" transform="translate(-75.842 -96.867)" fill="#171716" fill-rule="evenodd"/><path d="M259.347,260.252a.412.412,0,1,1-.413.413.413.413,0,0,1,.413-.413" transform="translate(-100.811 -103.688)" fill="#171716" fill-rule="evenodd"/><path d="M266.352,288.425a.412.412,0,1,1-.412.413.412.412,0,0,1,.412-.413" transform="translate(-106.44 -126.326)" fill="#171716" fill-rule="evenodd"/><path d="M241.04,294.164a.413.413,0,1,1-.411.409.411.411,0,0,1,.411-.409" transform="translate(-86.102 -130.938)" fill="#171716" fill-rule="evenodd"/><path d="M211.725,277.377a.415.415,0,0,1,0,.829.415.415,0,0,1,0-.829" transform="translate(-62.545 -117.449)" fill="#171716" fill-rule="evenodd"/><path d="M201.734,268.7c-.722-1.144,1.961-3.976,5.994-6.122,4.006-2.2,7.5-2.768,8.179-1.633.718,1.152-1.935,3.647-5.744,5.721l.072.113c-2.669,1.452-7.217,3.382-8.5,1.921m-.127.074c-.834-1.363,2.037-4.233,6.013-6.44s7.868-2.918,8.661-1.6c.844,1.33-1.858,4.1-5.887,6.3l-.084-.146c-3.915,1.935-7.55,3.267-8.7,1.884" transform="translate(-54.631 -103.546)" fill="#2b7a27" fill-rule="evenodd"/><path d="M216.235,267.374c.821-1.1-1.51-3.869-5.4-6.359-3.867-2.539-7.345-3.4-8.122-2.312-.818,1.11,1.619,3.741,5.291,6.142l-.082.107c2.575,1.678,6.9,3.792,8.317,2.423m.124.083c.95-1.311-1.571-4.135-5.4-6.682s-7.7-3.573-8.6-2.309c-.962,1.274,1.5,4.187,5.388,6.731l.1-.142c3.787,2.272,7.249,3.707,8.523,2.4" transform="translate(-55.177 -101.818)" fill="#ed7a00" fill-rule="evenodd"/><path d="M233.631,277.627a.08.08,0,1,0,0-.161.08.08,0,0,0,0,.161m-1.19.125h1.171l-.128.881v.914h-.154l-.189.192h.989l-.193-.192h-.147v-.914l-.12-.881h1.14l.058-.135-1.26-.277-1.21.267Z" transform="translate(-79.488 -117.419)" fill="#fff" fill-rule="evenodd"/><path d="M229.446,280.606h1.349c.034-.544-.094-.917-.671-1.024h-.011c-.359.074-.567.2-.659.564a1.32,1.32,0,0,0-.018.362.7.7,0,0,0,.01.1m-.019,0c-.042-.368-.041-.936.667-1.041v-.4h.049v.4c.5.073.73.411.671,1.042h.012c-.043.65-1.326.661-1.41,0h.012Z" transform="translate(-77.088 -118.887)" fill="#fff" fill-rule="evenodd"/><path d="M240.6,280.606h1.349c.033-.544-.093-.917-.67-1.024h-.008c-.362.074-.572.2-.66.564a1.336,1.336,0,0,0-.019.362c0,.043,0,.08.008.1m-.02,0c-.039-.368-.039-.936.672-1.041v-.4h.049v.4c.493.073.727.411.671,1.042h.008c-.043.65-1.325.661-1.409,0h.008Z" transform="translate(-86.052 -118.887)" fill="#fff" fill-rule="evenodd"/><path d="M464.7,201.652h-.828V193.7c0-.919-1.248-.67-1.248.107v7.841h-.84v-9.34h.84v.463a1.4,1.4,0,0,1,1.019-.449c.806,0,1.057.749,1.057,1.428v7.9m-5.112-11.939-1.49,2.111h-.843l1.2-2.111Zm-.819,10.614v-6.7c0-.381-.2-.735-.621-.735a.669.669,0,0,0-.626.735v6.7a.658.658,0,0,0,.626.7.622.622,0,0,0,.621-.7m.816,0a1.451,1.451,0,0,1-2.9,0v-6.774a1.369,1.369,0,0,1,1.449-1.456,1.4,1.4,0,0,1,1.453,1.456Zm-5.112,1.325h-.815v-9.34h.815Zm-2.986-6.206H450.7v-1.02c0-.385-.083-1.3-.624-1.3-.451,0-.623.5-.623.88v5.959c0,.4.021.928.543.928.621,0,.624-.9.624-1.326v-1.232h.816v1.415c0,.862-.272,2.089-1.36,2.089-1.308,0-1.5-1.061-1.5-2.114v-5.77c0-.9.462-1.691,1.453-1.691,1.492,0,1.454,2.191,1.454,3.185m-4.961,4.5c0,1-.391,1.817-1.5,1.817-1.1,0-1.532-.829-1.532-1.817v-7.6h.871v7.722c0,.4.185.856.649.856s.674-.456.674-.856v-7.722h.842Zm-4.974-6.842h-1.043v8.553h-.841V193.1h-1.045v-.787h2.929Zm-5.034,8.553H435.7v-9.34h.815ZM433.6,193.1h-1.043v8.553h-.841V193.1h-1.045v-.787H433.6Zm-6.359,8.725a1.286,1.286,0,0,1-1.293-.711,4.9,4.9,0,0,1-.219-2h.767v.878a1.663,1.663,0,0,0,.162.885.638.638,0,0,0,1.083-.163,4.478,4.478,0,0,0,.141-1.431,2.578,2.578,0,0,0-.513-1.427c-.346-.466-.7-.929-1.042-1.394a3.69,3.69,0,0,1-.56-2.037c0-.943.2-2.123,1.4-2.123,1.09,0,1.425,1.171,1.425,2.061a2.553,2.553,0,0,1-.04.5h-.763c0-.175.026-.35.026-.525,0-.375-.028-1.237-.575-1.237-.652,0-.71.773-.71,1.255a3.174,3.174,0,0,0,.57,1.737c.357.5.72.989,1.081,1.48a3.343,3.343,0,0,1,.588,1.827c0,.964-.326,2.426-1.53,2.426m-3.6-.172h-.832V193.7c0-.595-.544-.786-1-.4a.636.636,0,0,0-.243.506v7.841h-.838v-9.34h.838v.463a1.4,1.4,0,0,1,1.019-.449c.807,0,1.06.749,1.06,1.428Zm-5.28,0h-.815v-9.34h.815Z" transform="translate(-228.266 -47.007)" fill="#171716" fill-rule="evenodd"/><path d="M463.381,270.771v-3.03c0-.354-.328-.487-.635-.487s-.65.122-.65.487v3.03h1.285m.868,5.177h-.868v-4.355H462.1v4.355h-.8v-4.355h-.322v-.822h.322v-2.849a1.4,1.4,0,0,1,1.479-1.43,1.381,1.381,0,0,1,1.477,1.43Zm-4.556,0h-.814V266.61h.814Zm-2.785-7c0-.437-.112-1.677-.766-1.677h-.585v3.5h.688a1.979,1.979,0,0,0,.663-1.826m.716,7h-.834V272.1c0-.158-.258-.45-.42-.45h-.813v4.3h-.8v-4.3h-.366v-.878h.366v-4.211c2.067,0,2.919-.066,2.919,2.28a2.765,2.765,0,0,1-.8,2.327,1.077,1.077,0,0,1,.756.983Zm-5.248-5.177v-3.03c0-.354-.329-.487-.636-.487s-.649.122-.649.487v3.03Zm.869,5.177h-.869v-4.355h-1.285v4.355h-.8v-4.355h-.321v-.822h.321v-2.849a1.4,1.4,0,0,1,1.477-1.43,1.382,1.382,0,0,1,1.477,1.43Zm-4.062-8.558H448.14v8.558H447.3V267.39h-1.047v-.78h2.929Zm-4.159,8.558h-.815V266.61h.815Zm-3.6.169a1.275,1.275,0,0,1-1.293-.713,4.884,4.884,0,0,1-.219-2h.762c.109.542-.177,1.284.166,1.767a.639.639,0,0,0,1.08-.17,4.283,4.283,0,0,0,.141-1.428,2.2,2.2,0,0,0-.162-.787,3.5,3.5,0,0,0-.347-.641c-.348-.464-.7-.931-1.046-1.393a3.72,3.72,0,0,1-.557-2.036c0-.948.2-2.127,1.4-2.127,1.093,0,1.427,1.174,1.427,2.062a2.821,2.821,0,0,1-.04.5h-.761c0-.171.025-.347.025-.524,0-.375-.031-1.232-.575-1.232-.648,0-.71.77-.71,1.251a3.194,3.194,0,0,0,.569,1.737c.729,1.01,1.674,1.98,1.674,3.311,0,.967-.348,2.421-1.533,2.421m-3.258-7.174c0-.437-.109-1.677-.764-1.677h-.585v3.5h.686a1.974,1.974,0,0,0,.663-1.826m.717,7h-.832V272.1c0-.158-.26-.45-.42-.45h-.814v4.3h-.8v-4.3h-.371v-.878h.371v-4.211h1.8c.973.327,1.121,1.372,1.121,2.28a2.769,2.769,0,0,1-.8,2.327,1.079,1.079,0,0,1,.753.983Zm-4.252-.013a2.645,2.645,0,0,1-.648.074c-.744,0-1.787-.314-1.787-1.223v-3.14h-.342v-.8h.342V267.86c0-.927,1.029-1.222,1.787-1.222a2.616,2.616,0,0,1,.648.076v.707c-.5-.056-1.618-.206-1.618.514v2.914h1.618v.8h-1.618v3.064c0,.7,1.134.57,1.618.515Zm-3.792-9.325-1.234,9.338h-.75l-1.34-9.338h.791l.943,6.069.8-6.069Zm-4.555,9.338h-.813V266.61h.813Zm-2.249,0h-.829V268c0-.968-1.246-.625-1.246.1v7.843h-.842V266.61h.842v.463a1.381,1.381,0,0,1,1.018-.453c.807,0,1.057.748,1.057,1.43Zm-4.249-1.715c0,1-.392,1.82-1.5,1.82-1.1,0-1.533-.827-1.533-1.82v-7.595h.87v7.727c0,.4.185.85.651.85.448,0,.675-.456.675-.85v-7.727h.841Z" transform="translate(-227.623 -108.702)" fill="#171716" fill-rule="evenodd"/><path d="M423.911,339.569a2.633,2.633,0,0,1-.648.075c-.742,0-1.785-.312-1.785-1.222V335.28h-.345v-.8h.345v-2.984c0-.923,1.028-1.226,1.785-1.226a2.9,2.9,0,0,1,.648.076v.71a5.117,5.117,0,0,0-.635-.051c-.4,0-.981.037-.981.567v2.906h1.616v.8H422.3v3.069c0,.494.6.567.981.567.214,0,.423-.031.635-.052v.7m-4.916-1.7v-6.164a.752.752,0,0,0-.724-.811h-.523v8.03h.676c.484,0,.571-.705.571-1.055m.892-.107c0,.788-.34,1.845-1.3,1.845h-1.676v-9.37h1.63a1.513,1.513,0,0,1,1.347,1.582Z" transform="translate(-227.75 -159.927)" fill="#171716" fill-rule="evenodd"/><path d="M532.7,337.375v-6.7c0-.371-.191-.737-.608-.737a.67.67,0,0,0-.606.737v6.7a.65.65,0,0,0,.606.7.617.617,0,0,0,.608-.7m.792,0a1.412,1.412,0,1,1-2.824,0V330.6a1.352,1.352,0,0,1,1.414-1.456,1.38,1.38,0,0,1,1.41,1.456Zm-4.956-.382v-6.164a.747.747,0,0,0-.707-.811h-.507v8.03h.658c.473,0,.556-.711.556-1.055m.87-.107c0,.771-.322,1.845-1.269,1.845h-1.632v-9.37h1.587a1.5,1.5,0,0,1,1.314,1.582Zm-5.06-3.357v-3.033c0-.349-.314-.489-.616-.489-.319,0-.635.131-.635.489v3.033Zm.844,5.172h-.844V334.35H523.1V338.7h-.782V334.35H522v-.824h.313v-2.852a1.376,1.376,0,0,1,1.438-1.426,1.357,1.357,0,0,1,1.438,1.426Zm-4.375-1.907c0,.86-.335,2.087-1.4,2.087-1.29,0-1.453-1.081-1.453-2.106V331c0-.886.427-1.691,1.414-1.691,1.4,0,1.448,1.9,1.448,2.873h-.765v-.712c0-.371-.128-1.3-.644-1.3-.451,0-.683.478-.683.875v5.968c0,.4.143,1,.644,1,.684,0,.683-.931.683-1.4v-2.285h-.871v-.809h1.627Zm-4.275,1.907h-.795v-9.341h.795Zm-2.081-9.341-1.2,9.341h-.732l-1.3-9.341h.768l.917,6.073.784-6.073Zm-4.538,9.341h-.806v-7.945c0-.918-1.214-.673-1.214.1V338.7h-.819v-9.341h.819v.468a1.339,1.339,0,0,1,.989-.456c.8,0,1.031.771,1.031,1.436Zm-4.177-.011a2.468,2.468,0,0,1-1.811-.222,1.03,1.03,0,0,1-.559-.926V334.4h-.335v-.8h.335v-2.984c0-.913.982-1.226,1.738-1.226a2.773,2.773,0,0,1,.632.076v.71a4.806,4.806,0,0,0-.617-.051,1.727,1.727,0,0,0-.7.117.462.462,0,0,0-.258.451V333.6h1.575v.8H504.17v3.069a.454.454,0,0,0,.271.438,2.467,2.467,0,0,0,1.3.077Z" transform="translate(-296.96 -159.044)" fill="#171716" fill-rule="evenodd"/><path d="M142.222,138.243l-.013.087,1.282-.136c-.533.1-1.052.266-1.636.337-.157.076-.06.1-.09.157l1.536-.216v.075l-1.716.178c-.09.08-.1.134-.024.163l2.794-.235-2.937.288c-.2.039-.212.1-.046.162-.333,0-.4.064-.181.194-.423.081-.49.165-.2.255.853,0,2.031-.233,3.046-.347l-1.624.347.025.125.229-.013.038.15a13.563,13.563,0,0,0,2.147-.262l-1.993.454c-.175.058-.189.139-.04.155l1.256-.142-1.28.278c-.217.076-.206.129.024.153l1.181-.179-1.205.307c-.16.072-.15.136.024.189-.1.093-.047.131.166.125l1.207-.278-1.26.409c-.119.087-.1.118.053.139l.636-.125-.484.186c-.1.1-.062.135.113.131l.356-.066c-.181.105-.174.16.014.166l.085.027.523-.1-.407.129c-.131.065-.131.124,0,.176l.536-.012-.3.1-.05.061-.151.014.061.126.09.017v.164l.127.051.14-.025h.064s-.012.1.052.126a6.343,6.343,0,0,0,.811-.167l-.5.256.014.113.671-.127.179-.037.013.165.215.037-.074.088v.062l.114.08s.074.117.138.117-.077.1-.077.1-.087.051-.011.078a5.438,5.438,0,0,0,.851-.372l-.712.487v.08l.1.036a.6.6,0,0,1,.215-.078c.115-.016-.151.139-.151.139l-.014.126.064.053.141-.053-.141.117-.01.062.035.087s.129-.05.216-.074-.176.141-.176.141l-.015.06-.051.077.051.08.14-.025-.049.077.037.061.456-.23-.365.294.023.1.076.014.09.008,1.779-1.15-1.856,1.269-.064.051-.012.061.091.065.1-.037,1.789-1.106-1.612,1.106-.065.073-.01.066a.267.267,0,0,0,.137.01l1.3-.707-1.131.758-.012.067.026.077.088.011.47-.23-.356.267-.089.089v.075l.051.065h.125l.763-.5-.9.624-.039.088.126.049-.189.141.015.066.074.048,1.638-.851-1.612,1-.077.028.051.09-.064.088-.025.066.077.058.5-.226-.534.318a.476.476,0,0,0,.114.074h.077l-.165.1.051.062-.038.1-.024.074.049.065-.064.1.077.052-.038.119a.264.264,0,0,1,.063.177l.089.023v.074l-.089.028.089.064c.077.036-.013.011.066.088s.074.087.074.087l.086.028a.6.6,0,0,1,.117-.014h.063l.065-.023a.5.5,0,0,0,.112-.065l.013-.065c.062-.047.013-.084.013-.084l-.1-.016c-.062-.051-.191-.028-.1-.086s.09-.106.09-.106-.04-.026,0-.089a.22.22,0,0,0,.037-.1v-.162l.013-.066.315-.086-.064-.142-.012-.075.28-.09.088-.116-.19-.062.534-.267.012-.1-.075-.037-.839.258,1.193-.539.077-.087v-.062a6.6,6.6,0,0,0-.927.24l1.294-.645-.039-.066a.228.228,0,0,0-.151,0l-.939.418,1.731-1.053-.017-.088-.052-.061-1.2.579,1.489-.926a.275.275,0,0,0-.076-.1l-.1-.024-2.162,1.335,2.058-1.371.013-.1a.217.217,0,0,0-.139-.029h-.077l-1.587.929,1.485-1,.064-.076-.115-.036-.088-.017-2.083,1.319,1.728-1.2.091-.062.023-.064-.076-.051-.063.038-1.523.866,1.041-.7.037-.1V143.2l-.037-.06-.584.32.38-.348.027-.087-.077-.1-.09.038-1.192.747,1.092-.8.015-.064-.1-.036-.9.508.673-.547.088-.113-.1-.051-.128.051.1-.117-.066-.013-.087-.039H147.9l-.064.015-.774.42.482-.355-.066-.08-.1.015-.269.18.292-.241-.113-.041-.088-.011-.078.04-.074-.08a.249.249,0,0,0-.115-.05h-.152l-.583.356s-.09.052-.064-.013a.067.067,0,0,0-.04-.089l-.062-.014v-.089l-.128-.061-.126.011v-.142l-.064-.074-.251.027.288-.154V142l-.024-.059-.063-.038-.584.149.036-.1v-.063l-.062-.028h-.2l-.051-.087-.547.061.126-.075.177-.037.1-.037.076-.037.066-.047.012-.084-.078-.034-.062-.027.179-.144.077-.036a.1.1,0,0,0-.066-.088l-.089-.012,1.258-.34.062-.054.014-.077s-.014-.037-.088-.037a3.669,3.669,0,0,0-.458.126l.9-.316.025-.093-.088-.02-1.575.339.064-.1,1.6-.355.1-.08.1-.072v-.092a23.132,23.132,0,0,1-2.3.47c.228-.127,2.3-.533,2.3-.533l.074-.064.052-.1.089-.112h-.062l-.242.027-.127.027-.127.008s-.112-.061,0-.089a1.607,1.607,0,0,0,.24-.076l.053-.085-.064-.013-2.554.406,2.6-.508.179-.053.114-.074.012-.062a.389.389,0,0,0-.241-.015l-1.256.2v-.1l-1.219.1,1.634-.3.052-.072s.012-.089-.052-.089H145.7l-.608.078-.181-.028a.346.346,0,0,0-.124-.065l-.078-.024H144.3l.294-.075.163-.041.077-.047v-.066l-.025-.1-.6-.021.228-.063.1-.029a.624.624,0,0,0,.113-.035.333.333,0,0,0,.115-.077l.027-.078a.114.114,0,0,0-.091-.035h-.139l-.342.1s-.358.037-.471.037-.318.014-.318.014l.522-.114a2.67,2.67,0,0,1,.255-.088c.087-.012.074-.05.178-.05a.442.442,0,0,0,.176-.037l.116-.066v-.09a1.253,1.253,0,0,0-.154-.014,1.855,1.855,0,0,0-.241.04l-.279.052-.241.051-.392.039-.191.013-.215.049-.179.012-.243.036-.127.017-.2.049" transform="translate(-5.898 -5.361)" fill="#2b7a27" fill-rule="evenodd"/><path d="M151.235,203.11c-4.259,23.135,24.2,33.935,47.444,30.77-25.254,5.01-53.918-7.7-50.584-30.77h3.14" transform="translate(-11.533 -57.772)" fill="#fff" fill-rule="evenodd"/><path d="M477.783,412.956l-2.074,5.012h-.418l.631-1.554-1.554-3.458h.416l1.327,3h.008l1.237-3Z" transform="translate(-273.922 -226.392)" fill="#040505"/><path d="M140.3,409.847a2.442,2.442,0,0,1-1.007-.94,2.72,2.72,0,0,1-.358-1.4,2.675,2.675,0,0,1,.358-1.388,2.422,2.422,0,0,1,1.012-.937,3.249,3.249,0,0,1,1.5-.333,2.95,2.95,0,0,1,2.155.848l-.238.24a2.588,2.588,0,0,0-1.881-.773,2.853,2.853,0,0,0-1.319.292,2.111,2.111,0,0,0-.882.82,2.37,2.37,0,0,0-.313,1.225,2.442,2.442,0,0,0,.31,1.238,2.115,2.115,0,0,0,.87.831,2.964,2.964,0,0,0,2.48.046,2.379,2.379,0,0,0,.867-.677l.26.237a2.7,2.7,0,0,1-.986.738,3.177,3.177,0,0,1-1.323.266,3.243,3.243,0,0,1-1.505-.333" transform="translate(-4.387 -219.877)" fill="#040505"/><path d="M167.062,405.323a.246.246,0,0,1-.076-.186.25.25,0,0,1,.076-.182.257.257,0,0,1,.191-.078.27.27,0,0,1,.192.078.245.245,0,0,1,.08.182.248.248,0,0,1-.076.186.278.278,0,0,1-.2.074.266.266,0,0,1-.191-.074m.029,1.125h.343v3.686h-.343Z" transform="translate(-26.927 -219.901)" fill="#040505"/><path d="M175.88,414.563h-3.417a1.6,1.6,0,0,0,.453,1.087,1.47,1.47,0,0,0,1.083.407,1.866,1.866,0,0,0,.83-.186,1.985,1.985,0,0,0,.651-.509l.26.169a1.93,1.93,0,0,1-.754.607,2.347,2.347,0,0,1-.987.207,2,2,0,0,1-1-.243,1.684,1.684,0,0,1-.67-.676,2.239,2.239,0,0,1,0-2,1.627,1.627,0,0,1,.667-.666,2.221,2.221,0,0,1,1.993,0,1.651,1.651,0,0,1,.667.655,1.972,1.972,0,0,1,.236.976,1.03,1.03,0,0,1-.008.176m-2.979-1.348a1.6,1.6,0,0,0-.445,1.1h3.066a1.562,1.562,0,0,0-.441-1.1,1.5,1.5,0,0,0-1.1-.406,1.477,1.477,0,0,0-1.084.406" transform="translate(-31.029 -226.042)" fill="#040505"/><path d="M196.716,412.725a1.451,1.451,0,0,1,.6.575,1.7,1.7,0,0,1,.215.864v2.112h-.345v-2.034a1.486,1.486,0,0,0-.182-.746,1.251,1.251,0,0,0-.516-.5,1.627,1.627,0,0,0-.769-.176,1.451,1.451,0,0,0-1.059.39,1.37,1.37,0,0,0-.4,1.03v2.034h-.352V412.59h.344l.008.821a1.412,1.412,0,0,1,.578-.659,2.118,2.118,0,0,1,1.873-.028" transform="translate(-48.564 -226.042)" fill="#040505"/><path d="M215.779,416.108a1.731,1.731,0,0,1-.718-.674,1.976,1.976,0,0,1-.252-1,1.936,1.936,0,0,1,.257-1,1.728,1.728,0,0,1,.726-.669,2.565,2.565,0,0,1,1.79-.141,2.155,2.155,0,0,1,.6.294l-.2.246a1.765,1.765,0,0,0-.516-.256,2.079,2.079,0,0,0-.593-.081,1.886,1.886,0,0,0-.885.2,1.424,1.424,0,0,0-.6.569,1.668,1.668,0,0,0-.21.845,1.645,1.645,0,0,0,.213.844,1.466,1.466,0,0,0,.6.564,1.906,1.906,0,0,0,.891.2,2,2,0,0,0,.659-.11,1.712,1.712,0,0,0,.556-.312l.21.239a2.129,2.129,0,0,1-1.454.484,2.315,2.315,0,0,1-1.073-.238" transform="translate(-65.354 -226.042)" fill="#040505"/><path d="M234.251,405.323a.245.245,0,0,1-.078-.186.249.249,0,0,1,.078-.182.254.254,0,0,1,.189-.078.267.267,0,0,1,.193.078.241.241,0,0,1,.082.182.249.249,0,0,1-.077.186.279.279,0,0,1-.2.074.263.263,0,0,1-.189-.074m.028,1.125h.344v3.686h-.344Z" transform="translate(-80.914 -219.901)" fill="#040505"/><path d="M243.334,412.592v3.686h-.343l-.008-.871v-.064a1.562,1.562,0,0,1-.649.738,2.124,2.124,0,0,1-1.112.266,2.179,2.179,0,0,1-1.032-.238,1.738,1.738,0,0,1-.7-.67,1.949,1.949,0,0,1-.25-.995,1.993,1.993,0,0,1,.25-1.005,1.7,1.7,0,0,1,.7-.677,2.168,2.168,0,0,1,1.032-.24,2.128,2.128,0,0,1,1.112.269,1.55,1.55,0,0,1,.649.735v-.064l.008-.871Zm-1.155,3.254a1.448,1.448,0,0,0,.594-.564,1.8,1.8,0,0,0,0-1.689,1.432,1.432,0,0,0-.594-.569,2.048,2.048,0,0,0-1.768,0,1.432,1.432,0,0,0-.594.569,1.685,1.685,0,0,0-.21.852,1.643,1.643,0,0,0,.21.84,1.452,1.452,0,0,0,.594.561,2.048,2.048,0,0,0,1.768,0" transform="translate(-84.987 -226.044)" fill="#040505"/><path d="M269.359,430.822l.533-1.466h.435l-.61,1.466Z" transform="translate(-109.188 -239.571)" fill="#040505"/><path d="M295.1,414.649h-3.407a1.608,1.608,0,0,0,.45,1.083,1.47,1.47,0,0,0,1.082.405,1.855,1.855,0,0,0,.826-.185,1.975,1.975,0,0,0,.65-.507l.259.169a1.957,1.957,0,0,1-.752.605,2.359,2.359,0,0,1-.983.206,1.989,1.989,0,0,1-1-.241,1.7,1.7,0,0,1-.668-.676,2.223,2.223,0,0,1,0-2,1.622,1.622,0,0,1,.666-.665,2.031,2.031,0,0,1,.989-.234,2.051,2.051,0,0,1,1,.234,1.655,1.655,0,0,1,.664.654,1.966,1.966,0,0,1,.234.972,1.442,1.442,0,0,1-.006.176m-2.969-1.344a1.581,1.581,0,0,0-.445,1.091h3.057a1.557,1.557,0,0,0-.441-1.091,1.49,1.49,0,0,0-1.092-.406,1.464,1.464,0,0,0-1.08.406" transform="translate(-126.837 -226.117)" fill="#040505"/><path d="M315.734,403.887v5.457h-.342l-.007-.868v-.062a1.555,1.555,0,0,1-.647.734,2.119,2.119,0,0,1-1.109.267,2.155,2.155,0,0,1-1.028-.238,1.715,1.715,0,0,1-.7-.667,1.949,1.949,0,0,1-.249-.991,1.99,1.99,0,0,1,.249-1,1.688,1.688,0,0,1,.7-.675,2.144,2.144,0,0,1,1.028-.238,2.12,2.12,0,0,1,1.109.267,1.557,1.557,0,0,1,.647.732v-2.714Zm-1.15,5.027a1.439,1.439,0,0,0,.591-.564,1.643,1.643,0,0,0,.21-.839,1.664,1.664,0,0,0-.21-.842,1.421,1.421,0,0,0-.591-.566,1.847,1.847,0,0,0-.878-.2,1.866,1.866,0,0,0-.886.2,1.419,1.419,0,0,0-.59.566,1.673,1.673,0,0,0-.21.85,1.622,1.622,0,0,0,.21.836,1.442,1.442,0,0,0,.59.56,1.9,1.9,0,0,0,.886.2,1.882,1.882,0,0,0,.878-.2" transform="translate(-143.175 -219.105)" fill="#040505"/><path d="M337.1,416.508a1.521,1.521,0,0,1-.62-.581,1.673,1.673,0,0,1-.219-.865v-2.09h.35v2.041a1.361,1.361,0,0,0,.388,1.015,1.394,1.394,0,0,0,1.026.385,1.524,1.524,0,0,0,.741-.176,1.249,1.249,0,0,0,.5-.492,1.476,1.476,0,0,0,.179-.733v-2.041h.343v2.09a1.67,1.67,0,0,1-.221.865,1.513,1.513,0,0,1-.619.581,2.173,2.173,0,0,1-1.847,0" transform="translate(-162.948 -226.405)" fill="#040505"/><path d="M357.632,416.188a1.722,1.722,0,0,1-.713-.671,1.957,1.957,0,0,1-.251-1,1.919,1.919,0,0,1,.254-1,1.741,1.741,0,0,1,.724-.668,2.36,2.36,0,0,1,1.084-.238,2.328,2.328,0,0,1,.7.1,2.149,2.149,0,0,1,.6.293l-.2.245a1.774,1.774,0,0,0-.516-.255,2.086,2.086,0,0,0-.591-.081,1.865,1.865,0,0,0-.882.2,1.427,1.427,0,0,0-.594.566,1.68,1.68,0,0,0-.21.842,1.622,1.622,0,0,0,.214.839,1.448,1.448,0,0,0,.6.564,1.913,1.913,0,0,0,.887.2,1.983,1.983,0,0,0,.658-.11,1.67,1.67,0,0,0,.553-.31l.21.238a2.119,2.119,0,0,1-1.448.483,2.314,2.314,0,0,1-1.072-.238" transform="translate(-179.344 -226.117)" fill="#040505"/><path d="M378.512,412.684v3.672h-.343l-.007-.868v-.062a1.554,1.554,0,0,1-.647.734,2.121,2.121,0,0,1-1.109.267,2.165,2.165,0,0,1-1.028-.238,1.729,1.729,0,0,1-.7-.667,1.952,1.952,0,0,1-.248-.991,1.994,1.994,0,0,1,.248-1,1.7,1.7,0,0,1,.7-.675,2.154,2.154,0,0,1,1.028-.238,2.121,2.121,0,0,1,1.109.267,1.557,1.557,0,0,1,.647.732v-.062l.007-.867Zm-1.152,3.242a1.43,1.43,0,0,0,.591-.564,1.642,1.642,0,0,0,.211-.839,1.662,1.662,0,0,0-.211-.842,1.412,1.412,0,0,0-.591-.566,1.84,1.84,0,0,0-.877-.2,1.859,1.859,0,0,0-.885.2,1.425,1.425,0,0,0-.592.566,1.685,1.685,0,0,0-.21.849,1.634,1.634,0,0,0,.21.836,1.448,1.448,0,0,0,.592.561,1.9,1.9,0,0,0,.885.2,1.875,1.875,0,0,0,.877-.2" transform="translate(-193.62 -226.117)" fill="#040505"/><path d="M398.863,416.188a1.722,1.722,0,0,1-.714-.671,1.954,1.954,0,0,1-.251-1,1.924,1.924,0,0,1,.254-1,1.741,1.741,0,0,1,.725-.668,2.357,2.357,0,0,1,1.084-.238,2.33,2.33,0,0,1,.7.1,2.151,2.151,0,0,1,.594.293l-.2.245a1.772,1.772,0,0,0-.514-.255,2.086,2.086,0,0,0-.591-.081,1.869,1.869,0,0,0-.883.2,1.42,1.42,0,0,0-.594.566,1.662,1.662,0,0,0-.21.842,1.622,1.622,0,0,0,.215.839,1.446,1.446,0,0,0,.6.564,1.916,1.916,0,0,0,.888.2,1.985,1.985,0,0,0,.658-.11,1.668,1.668,0,0,0,.552-.31l.21.238a2.119,2.119,0,0,1-1.448.483,2.309,2.309,0,0,1-1.07-.238" transform="translate(-212.474 -226.117)" fill="#040505"/><path d="M417.271,405.433a.258.258,0,0,1,0-.367.262.262,0,0,1,.189-.078.269.269,0,0,1,.192.078.239.239,0,0,1,.081.181.244.244,0,0,1-.077.186.269.269,0,0,1-.2.074.264.264,0,0,1-.189-.074m.028,1.124h.343v3.672H417.3Z" transform="translate(-227.979 -219.99)" fill="#040505"/><path d="M423.224,409.608a1.753,1.753,0,0,1-.721-.667,2.08,2.08,0,0,1,0-2,1.728,1.728,0,0,1,.721-.672,2.332,2.332,0,0,1,1.08-.238,2.3,2.3,0,0,1,1.067.238,1.734,1.734,0,0,1,.72.672,2.089,2.089,0,0,1,0,2,1.759,1.759,0,0,1-.72.667,2.317,2.317,0,0,1-1.067.238,2.344,2.344,0,0,1-1.08-.238m1.955-.262a1.428,1.428,0,0,0,.594-.564,1.636,1.636,0,0,0,.209-.839,1.656,1.656,0,0,0-.209-.842,1.41,1.41,0,0,0-.594-.566,2.045,2.045,0,0,0-1.766,0,1.414,1.414,0,0,0-.591.566,1.674,1.674,0,0,0-.21.842,1.653,1.653,0,0,0,.21.839,1.432,1.432,0,0,0,.591.564,2.063,2.063,0,0,0,1.766,0m-1.1-3.907,1.008-1.014h.454l-1.133,1.014Z" transform="translate(-232.04 -219.537)" fill="#040505"/><path d="M448.614,412.816a1.451,1.451,0,0,1,.6.573,1.7,1.7,0,0,1,.215.86v2.106h-.344v-2.029a1.476,1.476,0,0,0-.182-.74,1.229,1.229,0,0,0-.514-.5,1.621,1.621,0,0,0-.766-.176,1.445,1.445,0,0,0-1.055.388,1.362,1.362,0,0,0-.4,1.025v2.029h-.349v-3.672h.343l.006.817a1.418,1.418,0,0,1,.578-.657,2.123,2.123,0,0,1,1.868-.028" transform="translate(-250.982 -226.117)" fill="#040505"/><path d="M508.563,403.887v5.457h-.343l-.007-.868v-.062a1.554,1.554,0,0,1-.645.734,2.122,2.122,0,0,1-1.11.267,2.158,2.158,0,0,1-1.028-.238,1.723,1.723,0,0,1-.7-.667,1.954,1.954,0,0,1-.248-.991,2,2,0,0,1,.248-1,1.7,1.7,0,0,1,.7-.675,2.147,2.147,0,0,1,1.028-.238,2.122,2.122,0,0,1,1.11.267,1.557,1.557,0,0,1,.645.732v-2.714Zm-1.151,5.027a1.439,1.439,0,0,0,.591-.564,1.635,1.635,0,0,0,.209-.839,1.656,1.656,0,0,0-.209-.842,1.421,1.421,0,0,0-.591-.566,1.844,1.844,0,0,0-.877-.2,1.864,1.864,0,0,0-.886.2,1.418,1.418,0,0,0-.591.566,1.69,1.69,0,0,0-.21.85,1.638,1.638,0,0,0,.21.836,1.441,1.441,0,0,0,.591.56,1.9,1.9,0,0,0,.886.2,1.879,1.879,0,0,0,.877-.2" transform="translate(-298.121 -219.105)" fill="#040505"/><path d="M531.05,414.649h-3.407a1.607,1.607,0,0,0,.451,1.083,1.468,1.468,0,0,0,1.081.405,1.847,1.847,0,0,0,.826-.185,1.991,1.991,0,0,0,.651-.507l.258.169a1.955,1.955,0,0,1-.752.605,2.356,2.356,0,0,1-.983.206,1.988,1.988,0,0,1-1-.241,1.685,1.685,0,0,1-.668-.676,2.228,2.228,0,0,1,0-2,1.63,1.63,0,0,1,.665-.665,2.226,2.226,0,0,1,1.987,0,1.646,1.646,0,0,1,.664.654,1.964,1.964,0,0,1,.235.972,1.138,1.138,0,0,1-.007.176m-2.969-1.344a1.587,1.587,0,0,0-.444,1.091h3.056a1.554,1.554,0,0,0-.441-1.091,1.489,1.489,0,0,0-1.09-.406,1.467,1.467,0,0,0-1.081.406" transform="translate(-316.432 -226.117)" fill="#040505"/><path d="M547.539,416.331a1.413,1.413,0,0,1-.563-.277l.161-.223a1.984,1.984,0,0,0,1.182.307,1.473,1.473,0,0,0,.808-.2.59.59,0,0,0,.3-.517q0-.5-.931-.749l-.482-.125a2.189,2.189,0,0,1-.786-.341.691.691,0,0,1-.271-.583.873.873,0,0,1,.378-.735,1.632,1.632,0,0,1,.993-.28,3.109,3.109,0,0,1,.714.077,2.5,2.5,0,0,1,.616.238l-.155.246a2.311,2.311,0,0,0-1.147-.273,1.35,1.35,0,0,0-.748.185.561.561,0,0,0-.288.493.5.5,0,0,0,.214.423,1.72,1.72,0,0,0,.62.257l.488.126a2.45,2.45,0,0,1,.836.377.753.753,0,0,1,.319.636.873.873,0,0,1-.4.746,1.824,1.824,0,0,1-1.077.284,3.083,3.083,0,0,1-.788-.094" transform="translate(-332.253 -226.117)" fill="#040505"/><path d="M565.992,412.684v3.672h-.341l-.008-.868v-.062a1.545,1.545,0,0,1-.646.734,2.12,2.12,0,0,1-1.109.267,2.154,2.154,0,0,1-1.028-.238,1.72,1.72,0,0,1-.7-.667,1.96,1.96,0,0,1-.249-.991,2,2,0,0,1,.249-1,1.693,1.693,0,0,1,.7-.675,2.143,2.143,0,0,1,1.028-.238,2.12,2.12,0,0,1,1.109.267,1.548,1.548,0,0,1,.646.732v-.062l.008-.867Zm-1.15,3.242a1.442,1.442,0,0,0,.592-.564,1.659,1.659,0,0,0,.209-.839,1.68,1.68,0,0,0-.209-.842,1.424,1.424,0,0,0-.592-.566,1.841,1.841,0,0,0-.877-.2,1.865,1.865,0,0,0-.886.2,1.414,1.414,0,0,0-.591.566,1.689,1.689,0,0,0-.21.849,1.638,1.638,0,0,0,.21.836,1.436,1.436,0,0,0,.591.561,1.9,1.9,0,0,0,.886.2,1.877,1.877,0,0,0,.877-.2" transform="translate(-344.268 -226.117)" fill="#040505"/><path d="M588.124,412.613l-.027.315a1.969,1.969,0,0,0-1.221.331,1.088,1.088,0,0,0-.43.906v2.191h-.35v-3.672h.342l.008.713a1.681,1.681,0,0,1,1.678-.784" transform="translate(-363.699 -226.117)" fill="#040505"/><path d="M598.7,412.613l-.028.315a1.969,1.969,0,0,0-1.221.331,1.085,1.085,0,0,0-.431.906v2.191h-.349v-3.672h.342l.007.713a1.682,1.682,0,0,1,1.679-.784" transform="translate(-372.196 -226.117)" fill="#040505"/><path d="M605.228,416.188a1.757,1.757,0,0,1-.722-.667,2.083,2.083,0,0,1,0-2,1.732,1.732,0,0,1,.722-.672,2.326,2.326,0,0,1,1.08-.238,2.3,2.3,0,0,1,1.067.238,1.718,1.718,0,0,1,.721.672,2.085,2.085,0,0,1,0,2,1.742,1.742,0,0,1-.721.667,2.312,2.312,0,0,1-1.067.238,2.337,2.337,0,0,1-1.08-.238m1.955-.262a1.434,1.434,0,0,0,.594-.564,1.635,1.635,0,0,0,.209-.839,1.656,1.656,0,0,0-.209-.842,1.416,1.416,0,0,0-.594-.566,2.046,2.046,0,0,0-1.767,0,1.426,1.426,0,0,0-.592.566,1.683,1.683,0,0,0-.209.842,1.662,1.662,0,0,0,.209.839,1.444,1.444,0,0,0,.592.564,2.064,2.064,0,0,0,1.767,0" transform="translate(-378.288 -226.117)" fill="#040505"/><rect width="0.351" height="5.457" transform="translate(230.476 184.782)" fill="#040505"/><rect width="0.351" height="5.457" transform="translate(231.539 184.782)" fill="#040505"/><path d="M637.487,416.188a1.739,1.739,0,0,1-.72-.667,2.076,2.076,0,0,1,0-2,1.715,1.715,0,0,1,.72-.672,2.333,2.333,0,0,1,1.081-.238,2.3,2.3,0,0,1,1.067.238,1.731,1.731,0,0,1,.721.672,2.084,2.084,0,0,1,0,2,1.756,1.756,0,0,1-.721.667,2.309,2.309,0,0,1-1.067.238,2.344,2.344,0,0,1-1.081-.238m1.955-.262a1.434,1.434,0,0,0,.595-.564,1.649,1.649,0,0,0,.21-.839,1.67,1.67,0,0,0-.21-.842,1.417,1.417,0,0,0-.595-.566,2.043,2.043,0,0,0-1.766,0,1.425,1.425,0,0,0-.592.566,1.668,1.668,0,0,0-.209.842,1.647,1.647,0,0,0,.209.839,1.443,1.443,0,0,0,.592.564,2.061,2.061,0,0,0,1.766,0" transform="translate(-404.21 -226.117)" fill="#040505"/></g></svg>